<svg width="213" height="213" viewBox="0 0 213 213" fill="none" xmlns="http://www.w3.org/2000/svg">
<path d="M143.641 125.32C132.07 130.623 122.91 138.82 117.124 148.944C113.026 155.935 110.616 164.131 109.411 172.568L108.928 178.835L108.928 180.764L113.026 180.523C113.267 180.282 113.509 180.523 113.991 180.523C114.955 180.523 115.678 180.282 116.883 180.041L119.294 179.559L119.535 176.907C119.535 176.425 119.535 175.461 119.776 174.737C120.499 166.782 122.91 159.551 126.767 153.283C131.588 145.087 138.82 138.337 148.462 133.998C156.417 130.383 170.881 121.222 179.077 100.973L179.318 100.25L179.318 98.8038C179.077 98.5627 179.318 98.3216 179.318 97.8395C179.077 95.1878 178.836 92.5362 178.112 89.8845L175.461 77.5905L172.086 89.6435C167.024 107.241 157.863 118.812 143.641 125.32Z" fill="url(#paint0_linear_2304_865)"/>
<path d="M84.5819 132.312C89.4031 124.116 96.6349 117.366 106.277 113.027C116.884 108.206 140.749 92.537 142.918 50.3516L142.918 43.1198L142.918 42.6377L142.918 40.7093L141.231 39.9861C140.026 39.2629 138.338 38.5398 136.651 37.8166L132.071 35.647L132.071 40.4682C132.312 41.1914 132.071 41.9145 132.071 42.8788C132.312 64.333 127.008 91.8138 101.456 103.867C89.8852 109.17 80.725 117.366 74.9396 127.491C69.3952 137.374 66.7435 148.222 66.2614 160.275L66.0204 160.034L66.2614 167.506C66.5025 167.747 66.2615 167.988 66.2615 168.471L66.2614 169.917L67.4667 170.64C68.9131 171.604 70.6005 172.328 72.0468 173.292L77.3502 175.702L76.627 170.158C76.386 169.435 76.627 168.712 76.3859 167.989C76.8681 158.346 77.3502 144.847 84.5819 132.312Z" fill="url(#paint1_linear_2304_865)"/>
<path d="M56.8602 151.355C56.6191 140.026 59.2707 130.142 64.0919 121.464C68.913 113.268 76.1448 106.518 85.7872 102.179C115.437 88.439 121.223 56.6191 122.428 41.4324L122.428 35.1649L122.669 32.9953L120.259 32.5133C118.812 32.5133 117.366 32.0311 115.679 31.79L112.304 31.3079L112.304 34.6828C112.304 35.1649 112.304 36.1291 112.304 36.6112C111.822 56.3781 106.036 81.9304 81.4481 93.0191C69.8773 98.3224 60.7171 106.518 54.9316 116.643C51.3158 123.151 48.9051 130.383 47.2177 138.338L46.2535 147.498C46.2535 148.463 46.2535 148.945 46.2535 149.909L46.2535 150.873L46.9767 151.596C48.4231 153.525 50.1105 155.212 51.3158 156.9L57.1012 163.167L56.8601 154.73C56.8601 153.766 56.6191 152.561 56.8602 151.355Z" fill="url(#paint2_linear_2304_865)"/>
<path d="M167.024 134.723L167.988 136.651L167.024 134.723C166.059 135.205 165.336 135.446 164.372 135.928C152.801 141.231 143.641 149.428 137.856 159.552C136.65 161.722 135.445 163.891 134.481 166.302L131.347 174.739L130.624 176.908L137.132 173.774C139.061 172.81 140.989 171.846 142.918 170.882L143.882 170.4L144.364 169.435C144.846 168.471 145.087 167.266 145.81 166.543C146.293 166.061 146.534 165.337 146.775 164.614C151.114 157.382 157.381 151.115 166.3 146.535C167.265 146.053 167.988 145.812 168.952 145.329L170.64 144.606L171.122 143.642C172.327 141.472 173.773 139.062 174.497 136.892L178.836 127.732L170.157 133.035C169.193 133.518 167.988 134.241 167.024 134.723Z" fill="url(#paint3_linear_2304_865)"/>
<path d="M154.007 47.9417L154.007 55.1735C154.007 56.1377 154.007 57.1019 154.007 58.0662C153.525 77.3509 147.74 103.385 123.152 114.474C111.581 119.777 102.421 127.973 96.6353 138.098C91.332 147.74 88.4392 158.347 88.1981 170.159L88.4392 176.667L88.6803 178.837L91.0909 179.319C92.7783 179.56 93.9836 179.801 95.43 180.283L99.0458 181.006L98.5637 177.149C98.5637 176.667 98.5637 175.703 98.5637 175.221C98.0815 163.168 100.492 153.043 105.795 143.883C110.617 135.687 117.848 128.938 127.491 124.598C135.687 120.742 142.678 115.197 148.222 108.206C158.105 95.9125 162.927 78.5562 164.132 63.3695C164.132 62.4052 164.373 61.6821 164.373 60.7179L164.373 59.2714L163.65 58.5483C162.203 57.1019 160.757 55.1735 159.311 53.7271L154.007 47.9417Z" fill="url(#paint4_linear_2304_865)"/>
<path d="M40.228 117.367L38.0585 116.644L40.228 117.367C40.9512 115.197 42.1565 113.028 43.1208 111.099C47.942 102.903 55.1737 96.1536 64.8161 91.8145C71.0836 88.9218 76.3869 85.0649 81.4492 80.0027C91.5736 69.8782 98.0822 56.1378 100.493 39.7458L101.216 33.2372L101.457 31.0677L97.6001 31.5498C96.1537 31.5498 94.4663 31.7909 93.02 32.273L90.6094 32.7551L90.3683 34.9246C90.1272 35.6478 90.3683 36.371 90.1272 37.0942C86.9935 59.5127 76.8691 74.9404 60.236 82.4132C48.4241 87.9576 39.0227 95.9126 32.9963 107.242C32.5141 108.207 32.032 109.171 31.3088 110.376L31.0678 111.099L31.0677 112.546C31.3088 112.787 31.0678 113.028 31.0678 113.51C31.5499 115.92 31.5499 118.331 32.032 120.742L34.4426 132.313L38.0585 120.983C39.2638 119.777 39.7459 118.331 40.228 117.367Z" fill="url(#paint5_linear_2304_865)"/>
<path d="M43.6016 81.207L44.5658 80.7249C48.9049 78.7964 54.9314 75.1805 60.9579 69.154C67.2254 62.8865 71.8055 55.4136 75.4214 46.9765L79.2783 35.8879L72.5288 39.2627C70.6003 40.2269 68.6718 41.1912 66.7433 42.6376L66.0201 43.3607L65.538 44.3249C65.0559 45.2891 64.8148 46.4945 64.3327 47.4588C59.7526 57.3422 53.0029 65.0561 44.0837 70.1183C43.1195 70.6004 42.1552 71.0825 41.191 71.5646L40.2268 72.0467L39.7446 73.011C38.7804 74.9394 37.8162 76.8679 37.093 79.0374L33.9592 86.9924L41.4321 82.8943C41.6731 82.1712 42.6374 81.6891 43.6016 81.207Z" fill="url(#paint6_linear_2304_865)"/>
<defs>
<linearGradient id="paint0_linear_2304_865" x1="133.034" y1="120.017" x2="155.935" y2="142.918" gradientUnits="userSpaceOnUse">
<stop/>
<stop offset="1"/>
</linearGradient>
<linearGradient id="paint1_linear_2304_865" x1="83.4971" y1="84.2204" x2="126.165" y2="126.888" gradientUnits="userSpaceOnUse">
<stop/>
<stop offset="1"/>
</linearGradient>
<linearGradient id="paint2_linear_2304_865" x1="67.7077" y1="75.9039" x2="106.036" y2="114.232" gradientUnits="userSpaceOnUse">
<stop/>
<stop offset="1"/>
</linearGradient>
<linearGradient id="paint3_linear_2304_865" x1="148.577" y1="146.168" x2="158.828" y2="156.418" gradientUnits="userSpaceOnUse">
<stop/>
<stop offset="1"/>
</linearGradient>
<linearGradient id="paint4_linear_2304_865" x1="104.952" y1="96.9972" x2="144.003" y2="136.049" gradientUnits="userSpaceOnUse">
<stop/>
<stop offset="1"/>
</linearGradient>
<linearGradient id="paint5_linear_2304_865" x1="54.8121" y1="68.5524" x2="76.5074" y2="90.2477" gradientUnits="userSpaceOnUse">
<stop/>
<stop offset="1"/>
</linearGradient>
<linearGradient id="paint6_linear_2304_865" x1="52.2797" y1="57.1011" x2="62.6453" y2="67.4666" gradientUnits="userSpaceOnUse">
<stop/>
<stop offset="1"/>
</linearGradient>
</defs>
</svg>
